<?xml version="1.0" encoding="utf-8"?>
<!-- Generator: Adobe Illustrator 18.0.0, SVG Export Plug-In . SVG Version: 6.00 Build 0)  -->
<!DOCTYPE svg PUBLIC "-//W3C//DTD SVG 1.1//EN" "http://www.w3.org/Graphics/SVG/1.1/DTD/svg11.dtd">
<svg version="1.1" id="Layer_1" xmlns="http://www.w3.org/2000/svg" xmlns:xlink="http://www.w3.org/1999/xlink" x="0px" y="0px"
	 width="200px" height="28.9px" viewBox="0 0 200 28.9" enable-background="new 0 0 200 28.9" xml:space="preserve">
<g>
	<rect x="0" y="0" fill="#ED1C24" width="200" height="28.9"/>
	<g>
		<g>
			<rect x="5" y="3.5" fill="#111111" width="86.8" height="24"/>
		</g>
		<g>
			<rect x="4" y="2.5" fill="#FFFFFF" width="86.8" height="24"/>
		</g>
	</g>
	<g>
		<g>
			<g>
				<path fill="#111111" d="M105.2,15.5v2.3h-4.9v-2.3H105.2z"/>
				<path fill="#111111" d="M111.3,7c1-0.2,2.3-0.3,3.5-0.3c1.8,0,3.4,0.2,4.5,1.2c1,0.9,1.3,2,1.3,3.5c0,1.8-0.9,3.4-2.6,4.2v0
					c1.1,0.4,1.7,1.5,2,3.3c0.3,1.9,0.8,3.9,1.1,4.5h-3.4c-0.2-0.5-0.6-2.2-0.8-4c-0.3-2.1-0.8-2.7-1.9-2.7h-0.5v6.7h-3.2V7z
					 M114.6,14.3h0.6c1.4,0,2.2-1.1,2.2-2.6c0-1.4-0.6-2.4-2-2.5c-0.3,0-0.6,0-0.8,0.1V14.3z"/>
				<path fill="#111111" d="M125.6,19.7l-0.7,3.8h-3.1l3.6-16.7h3.9l3.2,16.7h-3.1l-0.7-3.8H125.6z M128.3,17.2l-0.5-3.5
					c-0.2-1-0.4-2.7-0.5-3.8h-0.1c-0.2,1.1-0.4,2.9-0.6,3.8l-0.6,3.5H128.3z"/>
				<path fill="#111111" d="M134.9,9.8h-3v-3h9.2v3h-3v13.7h-3.2V9.8z"/>
				<path fill="#111111" d="M149.9,16.2h-3.8v4.5h4.3v2.8h-7.6V6.8h7.3v2.8h-4v3.8h3.8V16.2z"/>
				<path fill="#111111" d="M152.2,21.6c0-1.2,0.9-2.2,1.9-2.2c1,0,1.9,0.8,1.9,2.2c0,1.3-0.8,2.2-1.9,2.2
					C153.1,23.7,152.2,22.9,152.2,21.6z"/>
				<path fill="#111111" d="M166.2,23.3c-0.5,0.2-1.4,0.4-2.5,0.4c-4.3,0-6.3-3.5-6.3-8.3c0-6.3,3.5-8.8,6.7-8.8
					c1.1,0,1.9,0.2,2.3,0.4l-0.5,2.7c-0.4-0.2-0.8-0.3-1.5-0.3c-1.8,0-3.5,1.6-3.5,5.7c0,4,1.5,5.6,3.5,5.6c0.5,0,1.2-0.1,1.6-0.2
					L166.2,23.3z"/>
				<path fill="#111111" d="M177.6,14.9c0,6.3-2.2,8.9-5.4,8.9c-3.8,0-5.3-4-5.3-8.6c0-4.6,1.8-8.5,5.5-8.5
					C176.5,6.6,177.6,11,177.6,14.9z M170.3,15.2c0,3.8,0.7,5.7,2,5.7c1.4,0,1.9-2.5,1.9-5.9c0-2.9-0.4-5.6-1.9-5.6
					C171,9.4,170.3,11.6,170.3,15.2z"/>
				<path fill="#111111" d="M189.9,17.7c-0.1-1.6-0.2-3.7-0.1-5.5h-0.1c-0.3,1.8-0.7,3.8-1.1,5.1l-1.4,6h-2.3l-1.4-5.9
					c-0.3-1.3-0.8-3.4-1-5.2h-0.1c0,1.8-0.1,3.9-0.2,5.6l-0.3,5.8H179l1.2-16.7h3.4l1.3,6.1c0.5,2.1,0.9,4,1.2,5.9h0
					c0.2-1.9,0.6-3.7,1.1-5.9l1.3-6.1h3.4l1,16.7h-2.9L189.9,17.7z"/>
			</g>
		</g>
		<g>
			<g>
				<path fill="#FFFFFF" d="M104.2,14.5v2.3h-4.9v-2.3H104.2z"/>
				<path fill="#FFFFFF" d="M110.3,6c1-0.2,2.3-0.3,3.5-0.3c1.8,0,3.4,0.2,4.5,1.2c1,0.9,1.3,2,1.3,3.5c0,1.8-0.9,3.4-2.6,4.2v0
					c1.1,0.4,1.7,1.5,2,3.3c0.3,1.9,0.8,3.9,1.1,4.5h-3.4c-0.2-0.5-0.6-2.2-0.8-4c-0.3-2.1-0.8-2.7-1.9-2.7h-0.5v6.7h-3.2V6z
					 M113.6,13.3h0.6c1.4,0,2.2-1.1,2.2-2.6c0-1.4-0.6-2.4-2-2.5c-0.3,0-0.6,0-0.8,0.1V13.3z"/>
				<path fill="#FFFFFF" d="M124.6,18.7l-0.7,3.8h-3.1l3.6-16.7h3.9l3.2,16.7h-3.1l-0.7-3.8H124.6z M127.3,16.2l-0.5-3.5
					c-0.2-1-0.4-2.7-0.5-3.8h-0.1c-0.2,1.1-0.4,2.9-0.6,3.8l-0.6,3.5H127.3z"/>
				<path fill="#FFFFFF" d="M133.9,8.8h-3v-3h9.2v3h-3v13.7h-3.2V8.8z"/>
				<path fill="#FFFFFF" d="M148.9,15.2h-3.8v4.5h4.3v2.8h-7.6V5.8h7.3v2.8h-4v3.8h3.8V15.2z"/>
				<path fill="#FFFFFF" d="M151.2,20.6c0-1.2,0.9-2.2,1.9-2.2c1,0,1.9,0.8,1.9,2.2c0,1.3-0.8,2.2-1.9,2.2
					C152.1,22.7,151.2,21.9,151.2,20.6z"/>
				<path fill="#FFFFFF" d="M165.2,22.3c-0.5,0.2-1.4,0.4-2.5,0.4c-4.3,0-6.3-3.5-6.3-8.3c0-6.3,3.5-8.8,6.7-8.8
					c1.1,0,1.9,0.2,2.3,0.4l-0.5,2.7c-0.4-0.2-0.8-0.3-1.5-0.3c-1.8,0-3.5,1.6-3.5,5.7c0,4,1.5,5.6,3.5,5.6c0.5,0,1.2-0.1,1.6-0.2
					L165.2,22.3z"/>
				<path fill="#FFFFFF" d="M176.6,13.9c0,6.3-2.2,8.9-5.4,8.9c-3.8,0-5.3-4-5.3-8.6c0-4.6,1.8-8.5,5.5-8.5
					C175.5,5.6,176.6,10,176.6,13.9z M169.3,14.2c0,3.8,0.7,5.7,2,5.7c1.4,0,1.9-2.5,1.9-5.9c0-2.9-0.4-5.6-1.9-5.6
					C170,8.4,169.3,10.6,169.3,14.2z"/>
				<path fill="#FFFFFF" d="M188.9,16.7c-0.1-1.6-0.2-3.7-0.1-5.5h-0.1c-0.3,1.8-0.7,3.8-1.1,5.1l-1.4,6h-2.3l-1.4-5.9
					c-0.3-1.3-0.8-3.4-1-5.2h-0.1c0,1.8-0.1,3.9-0.2,5.6l-0.3,5.8H178l1.2-16.7h3.4l1.3,6.1c0.5,2.1,0.9,4,1.2,5.9h0
					c0.2-1.9,0.6-3.7,1.1-5.9l1.3-6.1h3.4l1,16.7h-2.9L188.9,16.7z"/>
			</g>
		</g>
	</g>
	<g>
		<path fill="#212020" d="M13.1,6.7c1-0.2,2.2-0.3,3.6-0.3c1.5,0,3,0.2,4.1,1.1c0.9,0.7,1.2,1.8,1.2,2.9c0,1.4-0.7,2.8-2.3,3.5V14
			c1.9,0.5,2.9,2.1,2.9,3.8c0,1.3-0.4,2.4-1.2,3.2c-1,1.1-2.6,1.6-5.3,1.6c-1.2,0-2.2-0.1-2.9-0.2V6.7z M16.2,13h0.7
			c1.1,0,2-1,2-2.3c0-1.2-0.5-2.1-1.8-2.1c-0.3,0-0.6,0-0.8,0.1V13z M16.2,20.2c0.2,0,0.4,0,0.7,0c1.3,0,2.3-0.8,2.3-2.4
			c0-1.6-1.1-2.4-2.3-2.5h-0.7V20.2z"/>
		<path fill="#212020" d="M27.8,6.4v16.1h-3.1V6.4H27.8z"/>
		<path fill="#212020" d="M32.3,9.3h-2.8V6.4h8.8v2.9h-2.9v13.2h-3.1V9.3z"/>
		<path fill="#212020" d="M39.9,6.4h7v2.7h-3.9v4.1h3.6v2.6h-3.6v6.6h-3.1V6.4z"/>
		<path fill="#212020" d="M58.8,14.2c0,6.1-2.1,8.5-5.2,8.5c-3.7,0-5.1-3.9-5.1-8.3c0-4.4,1.7-8.2,5.3-8.2
			C57.7,6.2,58.8,10.5,58.8,14.2z M51.8,14.5c0,3.7,0.7,5.5,2,5.5c1.3,0,1.8-2.4,1.8-5.7c0-2.8-0.4-5.4-1.8-5.4
			C52.5,8.9,51.8,11,51.8,14.5z"/>
		<path fill="#212020" d="M60.8,6.7c1-0.2,2.2-0.3,3.4-0.3c1.7,0,3.2,0.2,4.3,1.2c1,0.9,1.3,2,1.3,3.3c0,1.7-0.8,3.3-2.5,4v0
			c1.1,0.4,1.6,1.5,2,3.2c0.3,1.8,0.7,3.8,1,4.4H67c-0.2-0.5-0.5-2.1-0.8-3.8c-0.3-2-0.8-2.6-1.8-2.6h-0.5v6.4h-3.1V6.7z M63.9,13.7
			h0.5c1.4,0,2.1-1.1,2.1-2.5c0-1.4-0.5-2.3-2-2.4c-0.3,0-0.6,0-0.7,0.1V13.7z"/>
		<path fill="#212020" d="M72,6.4h3.1v7.2h0c0.3-0.7,0.5-1.4,0.8-2.1l2.1-5.2h3.4l-3.6,7l3.7,9.1h-3.4l-2.3-6.7l-0.7,1.3v5.3H72V6.4
			z"/>
	</g>
</g>
</svg>
