<?xml version="1.0" encoding="utf-8"?>
<!-- Generator: Adobe Illustrator 18.0.0, SVG Export Plug-In . SVG Version: 6.00 Build 0)  -->
<!DOCTYPE svg PUBLIC "-//W3C//DTD SVG 1.1//EN" "http://www.w3.org/Graphics/SVG/1.1/DTD/svg11.dtd">
<svg version="1.1" id="Layer_1" xmlns="http://www.w3.org/2000/svg" xmlns:xlink="http://www.w3.org/1999/xlink" x="0px" y="0px"
	 viewBox="0 0 50 8" enable-background="new 0 0 50 8" xml:space="preserve">
<g>
	<rect fill="#EB2027" width="50" height="8"/>
	<g>
		<g>
			<rect x="1.787" y="1.133" fill="#121212" width="21.635" height="5.975"/>
		</g>
		<g>
			<rect x="1.538" y="0.883" fill="#FFFFFF" width="21.635" height="5.975"/>
		</g>
	</g>
	<g>
		<g>
			<g>
				<path fill="#121212" d="M26.778,4.227v0.581h-1.23V4.227H26.778z"/>
				<path fill="#121212" d="M28.305,2.12c0.254-0.049,0.575-0.08,0.884-0.08c0.445,0,0.84,0.062,1.112,0.309
					c0.254,0.229,0.328,0.507,0.328,0.865c0,0.445-0.216,0.847-0.643,1.044V4.27c0.284,0.111,0.427,0.377,0.507,0.821
					c0.08,0.464,0.191,0.976,0.265,1.131h-0.846c-0.049-0.117-0.142-0.538-0.204-0.995c-0.074-0.519-0.204-0.667-0.476-0.667h-0.117
					v1.662h-0.809V2.12z M29.114,3.936h0.142c0.352,0,0.556-0.284,0.556-0.649c0-0.352-0.142-0.606-0.506-0.618
					c-0.068,0-0.149,0.006-0.192,0.025V3.936z"/>
				<path fill="#121212" d="M31.87,5.271l-0.185,0.951H30.9l0.902-4.164h0.97l0.809,4.164h-0.784l-0.179-0.951H31.87z M32.544,4.641
					l-0.136-0.871c-0.043-0.253-0.099-0.667-0.136-0.945h-0.019c-0.043,0.278-0.105,0.71-0.148,0.951l-0.155,0.865H32.544z"/>
				<path fill="#121212" d="M34.182,2.806h-0.735V2.058h2.286v0.748h-0.742v3.416h-0.809V2.806z"/>
				<path fill="#121212" d="M37.921,4.393H36.97v1.125h1.075v0.704H36.16V2.058h1.81v0.704H36.97V3.72h0.951V4.393z"/>
				<path fill="#121212" d="M38.496,5.734c0-0.309,0.228-0.538,0.476-0.538c0.26,0,0.469,0.204,0.469,0.538
					c0,0.327-0.191,0.538-0.476,0.538C38.712,6.272,38.496,6.061,38.496,5.734z"/>
				<path fill="#121212" d="M41.994,6.16c-0.117,0.056-0.346,0.099-0.63,0.099c-1.063,0-1.569-0.877-1.569-2.057
					c0-1.569,0.871-2.181,1.68-2.181c0.284,0,0.482,0.056,0.562,0.111l-0.136,0.68c-0.093-0.043-0.198-0.08-0.377-0.08
					c-0.457,0-0.871,0.395-0.871,1.427c0,0.995,0.377,1.384,0.871,1.384c0.136,0,0.29-0.031,0.389-0.061L41.994,6.16z"/>
				<path fill="#121212" d="M44.824,4.066c0,1.569-0.556,2.206-1.346,2.206c-0.946,0-1.316-1.001-1.316-2.144
					c0-1.137,0.451-2.119,1.372-2.119C44.54,2.009,44.824,3.114,44.824,4.066z M43.002,4.14c0,0.945,0.179,1.427,0.506,1.427
					c0.34,0,0.469-0.618,0.469-1.464c0-0.729-0.111-1.39-0.476-1.39C43.181,2.713,43.002,3.244,43.002,4.14z"/>
				<path fill="#121212" d="M47.883,4.764c-0.019-0.395-0.049-0.933-0.037-1.378h-0.019c-0.074,0.445-0.186,0.958-0.266,1.279
					l-0.358,1.489H46.63L46.283,4.69c-0.08-0.334-0.191-0.853-0.253-1.304h-0.019c-0.013,0.451-0.037,0.976-0.062,1.39l-0.068,1.446
					h-0.698l0.302-4.164h0.853l0.334,1.508c0.117,0.525,0.223,0.988,0.297,1.458h0.013c0.062-0.464,0.154-0.933,0.265-1.458
					l0.328-1.508h0.853l0.253,4.164h-0.723L47.883,4.764z"/>
			</g>
		</g>
		<g>
			<g>
				<path fill="#FFFFFF" d="M26.528,3.977v0.581h-1.23V3.977H26.528z"/>
				<path fill="#FFFFFF" d="M28.055,1.871c0.254-0.049,0.575-0.08,0.884-0.08c0.445,0,0.84,0.062,1.112,0.309
					c0.254,0.229,0.328,0.507,0.328,0.865c0,0.445-0.216,0.847-0.643,1.044v0.012c0.284,0.111,0.427,0.377,0.507,0.821
					c0.08,0.464,0.191,0.976,0.265,1.131h-0.846c-0.049-0.117-0.142-0.538-0.204-0.995c-0.074-0.519-0.204-0.667-0.476-0.667h-0.117
					v1.662h-0.809V1.871z M28.865,3.687h0.142c0.352,0,0.556-0.284,0.556-0.649c0-0.352-0.142-0.606-0.506-0.618
					c-0.068,0-0.149,0.006-0.192,0.025V3.687z"/>
				<path fill="#FFFFFF" d="M31.621,5.021l-0.185,0.951h-0.785l0.902-4.164h0.97l0.809,4.164h-0.784l-0.179-0.951H31.621z
					 M32.295,4.391L32.159,3.52c-0.043-0.253-0.099-0.667-0.136-0.945h-0.019c-0.043,0.278-0.105,0.71-0.148,0.951l-0.155,0.865
					H32.295z"/>
				<path fill="#FFFFFF" d="M33.933,2.556h-0.735V1.809h2.286v0.748h-0.742v3.416h-0.809V2.556z"/>
				<path fill="#FFFFFF" d="M37.672,4.144H36.72v1.125h1.075v0.704h-1.884V1.809h1.81v0.704H36.72v0.958h0.951V4.144z"/>
				<path fill="#FFFFFF" d="M38.247,5.485c0-0.309,0.228-0.538,0.476-0.538c0.26,0,0.469,0.204,0.469,0.538
					c0,0.327-0.191,0.538-0.476,0.538C38.463,6.022,38.247,5.812,38.247,5.485z"/>
				<path fill="#FFFFFF" d="M41.745,5.911c-0.117,0.056-0.346,0.099-0.63,0.099c-1.063,0-1.569-0.877-1.569-2.057
					c0-1.569,0.871-2.181,1.68-2.181c0.284,0,0.482,0.056,0.562,0.111l-0.136,0.68c-0.093-0.043-0.198-0.08-0.377-0.08
					c-0.457,0-0.871,0.395-0.871,1.427c0,0.995,0.377,1.384,0.871,1.384c0.136,0,0.29-0.031,0.389-0.061L41.745,5.911z"/>
				<path fill="#FFFFFF" d="M44.575,3.817c0,1.569-0.556,2.206-1.346,2.206c-0.946,0-1.316-1.001-1.316-2.144
					c0-1.137,0.451-2.119,1.372-2.119C44.291,1.759,44.575,2.865,44.575,3.817z M42.753,3.891c0,0.945,0.179,1.427,0.506,1.427
					c0.34,0,0.469-0.618,0.469-1.464c0-0.729-0.111-1.39-0.476-1.39C42.932,2.464,42.753,2.995,42.753,3.891z"/>
				<path fill="#FFFFFF" d="M47.634,4.515c-0.019-0.395-0.049-0.933-0.037-1.378h-0.019c-0.074,0.445-0.186,0.958-0.266,1.279
					l-0.358,1.489H46.38l-0.346-1.464c-0.08-0.334-0.191-0.853-0.253-1.304h-0.019c-0.013,0.451-0.037,0.976-0.062,1.39
					l-0.068,1.446h-0.698l0.302-4.164h0.853l0.334,1.508c0.117,0.525,0.223,0.988,0.297,1.458h0.013
					c0.062-0.464,0.154-0.933,0.265-1.458l0.328-1.508h0.853l0.253,4.164h-0.723L47.634,4.515z"/>
			</g>
		</g>
	</g>
	<g>
		<path fill="#212020" d="M3.815,2.069c0.238-0.054,0.548-0.077,0.887-0.077c0.375,0,0.738,0.048,1.018,0.286
			c0.214,0.179,0.304,0.446,0.304,0.726c0,0.357-0.185,0.703-0.583,0.875v0.024C5.905,4.033,6.155,4.42,6.155,4.861
			c0,0.333-0.107,0.589-0.298,0.786C5.619,5.909,5.215,6.052,4.542,6.052c-0.298,0-0.548-0.018-0.726-0.042V2.069z M4.595,3.658
			h0.167c0.28,0,0.494-0.238,0.494-0.566c0-0.292-0.137-0.518-0.458-0.518c-0.083,0-0.155,0.006-0.202,0.024V3.658z M4.595,5.438
			C4.643,5.45,4.697,5.45,4.768,5.45c0.316,0,0.578-0.191,0.578-0.601c0-0.399-0.274-0.607-0.583-0.613H4.595V5.438z"/>
		<path fill="#212020" d="M7.471,2.009v4.013h-0.78V2.009H7.471z"/>
		<path fill="#212020" d="M8.602,2.73H7.893v-0.72h2.203v0.72H9.382v3.292h-0.78V2.73z"/>
		<path fill="#212020" d="M10.506,2.009h1.744v0.679h-0.964v1.03h0.905v0.649h-0.905v1.655h-0.78V2.009z"/>
		<path fill="#212020" d="M15.21,3.944c0,1.512-0.536,2.125-1.298,2.125c-0.911,0-1.268-0.964-1.268-2.066
			c0-1.096,0.435-2.042,1.322-2.042C14.936,1.962,15.21,3.027,15.21,3.944z M13.453,4.016c0,0.911,0.173,1.375,0.488,1.375
			c0.327,0,0.452-0.595,0.452-1.411c0-0.703-0.107-1.34-0.458-1.34C13.626,2.64,13.453,3.152,13.453,4.016z"/>
		<path fill="#212020" d="M15.704,2.069c0.244-0.048,0.554-0.077,0.851-0.077c0.429,0,0.81,0.06,1.072,0.298
			c0.244,0.22,0.316,0.488,0.316,0.834c0,0.429-0.208,0.816-0.619,1.006v0.012c0.274,0.107,0.411,0.363,0.488,0.792
			c0.077,0.447,0.185,0.941,0.256,1.09h-0.816c-0.048-0.113-0.137-0.518-0.197-0.959c-0.071-0.5-0.196-0.643-0.458-0.643h-0.113
			v1.602h-0.78V2.069z M16.484,3.819h0.137c0.339,0,0.536-0.274,0.536-0.625c0-0.339-0.137-0.583-0.488-0.595
			c-0.066,0-0.143,0.006-0.185,0.024V3.819z"/>
		<path fill="#212020" d="M18.501,2.009h0.78v1.804h0.012c0.066-0.167,0.131-0.345,0.197-0.518l0.536-1.286h0.857l-0.899,1.744
			l0.911,2.268h-0.851L19.46,4.361l-0.179,0.327v1.334h-0.78V2.009z"/>
	</g>
</g>
</svg>
